<?xml version="1.0" standalone="no"?>
<!DOCTYPE svg PUBLIC "-//W3C//DTD SVG 20010904//EN"
 "http://www.w3.org/TR/2001/REC-SVG-20010904/DTD/svg10.dtd">
<svg version="1.0" xmlns="http://www.w3.org/2000/svg"
 width="1280.000000pt" height="772.000000pt" viewBox="0 0 1280.000000 772.000000"
 preserveAspectRatio="xMidYMid meet">
<metadata>
Created by potrace 1.15, written by Peter Selinger 2001-2017
</metadata>
<g transform="translate(0.000000,772.000000) scale(0.100000,-0.100000)"
fill="#000000" stroke="none">
<path d="M6332 7681 c-187 -135 -359 -351 -445 -556 -55 -133 -107 -352 -107
-457 l0 -37 -305 -3 c-233 -2 -307 -6 -317 -16 -10 -10 -14 -105 -16 -435 l-3
-421 56 61 c144 159 335 219 517 163 206 -63 375 -310 414 -602 6 -40 10 -48
23 -42 104 43 161 57 246 57 88 1 111 -5 230 -59 7 -3 16 26 24 73 29 175 93
312 197 422 205 218 520 215 727 -7 26 -29 50 -52 52 -52 10 0 5 756 -6 793
-19 68 -23 69 -338 65 l-280 -3 -7 55 c-42 360 -163 629 -384 851 -79 79 -209
190 -222 189 -2 0 -27 -18 -56 -39z"/>
<path d="M3225 7438 c-102 -105 -176 -212 -240 -343 -89 -185 -125 -333 -134
-560 l-6 -160 -255 -31 c-329 -40 -338 -42 -350 -65 -8 -13 4 -133 40 -426 28
-223 52 -408 54 -410 2 -2 16 17 31 43 70 119 220 223 355 245 173 27 363 -65
485 -236 54 -75 117 -206 141 -292 9 -35 20 -63 24 -63 3 0 37 15 76 34 38 19
89 39 114 46 61 16 175 14 235 -4 28 -9 55 -16 61 -16 7 0 13 38 17 103 7 126
27 208 78 314 68 144 192 254 324 288 170 44 353 -3 478 -123 27 -26 37 -32
37 -19 0 64 -93 758 -105 784 -24 54 -23 54 -403 5 l-212 -28 -10 40 c-86 341
-225 586 -437 769 -81 70 -269 197 -292 197 -9 0 -56 -42 -106 -92z"/>
<path d="M9385 7488 c-324 -193 -552 -510 -631 -878 -15 -69 -20 -80 -38 -80
-12 0 -129 14 -261 30 -288 36 -331 37 -344 12 -6 -11 -31 -190 -56 -398 -25
-208 -47 -392 -50 -407 -5 -28 -4 -28 47 18 65 58 134 98 216 126 53 17 81 21
160 17 85 -3 106 -8 167 -38 126 -60 232 -190 285 -350 27 -79 50 -215 50
-291 l0 -55 73 18 c53 14 97 18 164 16 84 -4 98 -7 178 -47 48 -23 88 -41 89
-39 1 1 10 32 20 68 40 152 156 335 264 413 230 169 529 122 700 -110 26 -35
48 -60 49 -55 11 40 92 772 88 792 -12 54 -23 58 -323 92 l-282 33 0 81 c0
335 -85 608 -265 849 -72 97 -194 225 -213 225 -10 0 -48 -19 -87 -42z"/>
<path d="M337 5993 c184 -401 402 -875 485 -1055 114 -249 155 -328 168 -328
10 0 37 7 61 16 24 9 76 18 114 20 39 2 71 4 71 4 1 0 -8 30 -18 68 -29 99
-36 306 -14 406 35 153 126 286 242 348 57 31 159 58 219 58 63 0 173 -27 242
-59 34 -17 63 -28 63 -26 0 9 -331 690 -347 714 -14 21 -20 23 -72 18 -44 -4
-102 -27 -278 -111 -122 -58 -227 -107 -234 -108 -7 -2 -30 28 -50 65 -132
238 -358 453 -604 574 -128 64 -304 123 -363 123 -17 0 30 -108 315 -727z"/>
<path d="M12685 6686 c-372 -98 -706 -361 -885 -699 -14 -26 -29 -47 -33 -47
-5 0 -108 48 -230 106 -122 58 -246 111 -275 117 -48 10 -54 9 -73 -10 -21
-20 -362 -713 -355 -720 1 -2 27 8 57 21 318 146 626 -3 705 -340 21 -93 15
-308 -13 -411 l-19 -73 55 0 c31 0 87 -8 124 -19 50 -14 70 -15 81 -7 11 8
681 1454 947 2044 18 39 24 62 16 62 -7 -1 -52 -12 -102 -24z"/>
<path d="M6271 5099 c-244 -26 -434 -120 -492 -244 -36 -77 -15 -150 65 -223
187 -172 649 -219 968 -98 155 58 248 152 248 251 0 155 -215 283 -529 314
-115 12 -140 12 -260 0z"/>
<path d="M8948 4970 c-90 -14 -177 -39 -247 -71 -184 -83 -258 -208 -196 -329
23 -44 111 -117 183 -151 220 -104 577 -118 831 -33 172 58 292 169 291 271
-1 82 -82 174 -204 233 -134 64 -224 82 -426 86 -96 1 -201 -1 -232 -6z"/>
<path d="M3476 4959 c-221 -32 -416 -136 -462 -244 -53 -127 41 -255 244 -331
197 -75 486 -88 707 -33 97 23 214 77 271 124 47 39 94 123 94 169 -1 103
-119 213 -292 271 -148 49 -395 68 -562 44z"/>
<path d="M1250 4530 c-171 -22 -366 -85 -471 -152 -331 -213 -162 -527 341
-633 102 -21 308 -38 390 -32 84 7 77 -1 -23 -28 l-67 -17 6 -37 c13 -72 62
-157 125 -215 138 -128 341 -187 639 -187 243 0 432 31 664 107 254 84 456
201 614 357 93 91 156 178 197 273 l32 74 39 -51 c115 -151 341 -266 633 -322
102 -19 149 -22 386 -22 167 0 304 5 360 13 535 76 983 247 1207 460 l57 54
70 -64 c245 -227 640 -393 1091 -459 171 -25 497 -30 650 -10 379 50 663 170
805 341 21 25 40 46 44 48 4 1 13 -17 20 -40 65 -223 319 -456 646 -593 650
-273 1408 -197 1579 158 56 117 59 107 -47 144 -167 57 -211 81 -112 61 28 -6
129 -10 225 -10 147 0 194 4 290 25 198 42 353 115 431 204 231 264 -148 553
-724 553 -321 0 -576 -77 -714 -215 -50 -50 -65 -73 -78 -119 -9 -32 -14 -68
-11 -81 6 -23 4 -23 -80 -30 -229 -19 -435 36 -644 173 l-76 49 -64 -24 c-108
-41 -288 -83 -399 -94 -243 -25 -492 42 -825 222 l-131 70 -130 -51 c-189 -74
-291 -100 -420 -107 -179 -9 -315 25 -553 138 l-124 59 -71 -40 c-101 -54
-227 -103 -338 -131 -123 -30 -367 -33 -501 -6 -114 23 -280 79 -397 133 -52
24 -97 44 -101 44 -4 0 -44 -22 -89 -50 -254 -152 -562 -195 -856 -119 -44 11
-135 47 -202 80 l-122 60 -118 -74 c-345 -217 -555 -274 -848 -232 -101 14
-266 54 -406 98 l-76 24 -44 -31 c-182 -131 -350 -186 -570 -186 l-86 0 -1 45
c-1 127 -149 261 -367 334 -171 56 -467 84 -655 61z"/>
<path d="M6350 3893 c-59 -71 -184 -180 -265 -231 -63 -39 -179 -92 -267 -122
-38 -12 -68 -24 -68 -26 0 -2 287 -4 638 -4 l637 1 -93 34 c-174 63 -297 152
-434 315 -45 52 -83 96 -87 97 -3 2 -31 -27 -61 -64z"/>
<path d="M8955 3749 c-89 -79 -211 -158 -300 -197 -74 -32 -222 -76 -293 -88
-24 -4 -41 -8 -39 -11 2 -2 272 -37 598 -78 327 -41 610 -77 629 -80 28 -4 20
2 -41 33 -168 85 -285 193 -404 375 -38 58 -72 107 -75 107 -3 0 -36 -28 -75
-61z"/>
<path d="M3704 3702 c-115 -170 -251 -290 -438 -388 -105 -56 -105 -60 4 -44
36 5 308 41 604 80 480 62 596 80 530 80 -42 0 -192 44 -262 76 -90 41 -180
104 -293 206 l-86 77 -59 -87z"/>
<path d="M11390 3307 c-203 -134 -317 -173 -538 -184 -73 -3 -129 -9 -125 -13
4 -4 55 -19 113 -35 123 -33 334 -103 405 -134 l50 -22 28 33 c48 57 87 115
106 160 18 42 75 258 69 263 -2 1 -50 -29 -108 -68z"/>
<path d="M1381 3228 c16 -62 42 -140 59 -173 36 -73 107 -160 129 -159 9 1 65
20 124 43 60 23 182 63 273 89 90 26 164 50 164 55 0 4 -44 7 -97 7 -223 0
-347 41 -579 191 -50 33 -93 59 -97 59 -3 0 8 -51 24 -112z"/>
<path d="M5645 3304 c-104 -7 -363 -25 -574 -39 -212 -14 -386 -27 -387 -28
-2 -1 35 -43 82 -92 211 -223 307 -451 274 -653 -23 -148 -91 -284 -220 -446
-39 -48 -70 -88 -70 -89 0 -1 111 5 248 14 136 9 410 27 610 39 199 13 362 26
362 29 0 3 -14 16 -31 28 -56 39 -151 137 -200 206 -26 37 -62 107 -80 155
-30 80 -32 97 -33 212 -1 146 13 211 75 339 47 100 108 188 191 277 l60 64
-58 -1 c-33 -1 -144 -8 -249 -15z"/>
<path d="M7007 3277 c206 -263 283 -430 283 -616 -1 -190 -85 -363 -271 -553
-49 -50 -88 -92 -87 -93 3 -1 662 -28 1063 -42 l160 -6 -66 69 c-104 109 -158
199 -199 329 -28 90 -31 249 -6 345 45 175 184 380 336 496 27 21 48 39 47 41
-2 1 -176 9 -388 18 -211 8 -492 20 -624 25 -132 5 -246 10 -253 10 -10 0 -9
-6 5 -23z"/>
<path d="M6280 3267 c-117 -35 -196 -83 -280 -167 -363 -364 -178 -988 326
-1095 345 -73 692 153 770 501 70 318 -123 654 -436 756 -101 33 -281 35 -380
5z"/>
<path d="M8569 3185 c-239 -60 -414 -233 -479 -469 -28 -102 -24 -266 8 -366
46 -140 161 -285 284 -358 136 -80 315 -110 468 -78 190 40 367 177 448 346
93 194 94 389 3 575 -81 164 -204 271 -389 337 -75 26 -262 34 -343 13z"/>
<path d="M4075 3176 c-326 -81 -548 -407 -495 -727 55 -335 346 -575 675 -556
243 14 447 148 550 362 54 112 69 175 68 290 -1 179 -61 323 -188 451 -131
133 -278 194 -465 193 -52 0 -117 -6 -145 -13z"/>
<path d="M9350 3136 c0 -2 24 -52 54 -112 186 -374 162 -658 -79 -943 -35 -42
-96 -103 -135 -136 -38 -33 -70 -62 -70 -65 0 -4 241 -47 535 -96 294 -49 535
-88 535 -87 0 1 -21 34 -46 73 -93 144 -135 278 -136 435 -1 115 12 188 54
297 54 141 178 303 311 405 32 25 56 47 54 49 -2 2 -233 42 -513 89 -280 46
-521 87 -536 89 -16 3 -28 4 -28 2z"/>
<path d="M3195 3050 c-225 -42 -465 -87 -533 -100 l-123 -22 80 -74 c197 -184
302 -374 317 -577 12 -153 -28 -309 -128 -505 l-57 -113 32 6 c18 3 256 48
530 98 l498 93 -80 63 c-134 105 -224 230 -277 386 -25 73 -28 93 -28 235 -1
102 4 172 13 205 27 102 74 216 122 296 27 45 48 83 47 84 -2 1 -187 -33 -413
-75z"/>
<path d="M10635 2854 c-38 -8 -108 -34 -155 -56 -68 -33 -101 -57 -166 -122
-124 -124 -182 -251 -191 -422 -11 -195 51 -358 188 -495 62 -63 93 -85 170
-122 112 -54 169 -67 293 -67 218 0 414 104 534 285 243 363 67 855 -353 985
-93 28 -228 35 -320 14z"/>
<path d="M2022 2845 c-179 -40 -342 -162 -430 -318 -76 -134 -101 -309 -67
-461 53 -240 241 -431 485 -492 87 -22 259 -15 350 15 253 81 432 316 447 586
11 189 -54 354 -191 490 -86 85 -155 128 -266 165 -85 28 -241 35 -328 15z"/>
<path d="M5740 1764 c-1554 -58 -2670 -204 -3380 -440 -536 -178 -733 -385
-554 -583 283 -315 1440 -577 3024 -686 574 -39 880 -49 1600 -49 856 0 1334
20 2050 85 1608 146 2650 457 2650 791 0 350 -1043 659 -2720 807 -646 57
-1010 72 -1845 75 -407 2 -778 2 -825 0z"/>
</g>
</svg>
