<svg width="260" height="70" version="1.1" xmlns="http://www.w3.org/2000/svg" desc="Created with imagetracer.js version 1.2.6" ><path fill="rgb(0,0,0)" stroke="rgb(0,0,0)" stroke-width="1" opacity="0" d="M 0 0 L 259.5 0 L 260 0.5 L 260 70 L 0.5 70 L 0 69.5 L 0 0 Z M 58 13 L 56 20 Q 54 23 48 21 L 48 38 L 47 39 Q 46 41 49 40 L 60 16 Q 61 12 58 13 Z M 67 13 L 43 64 Q 42 66 45 65 L 48 58 Q 49 55 55 56 L 58 50 L 60 48 L 74 48 L 76 55 L 78 56 L 85 56 L 80 44 L 79 42 L 62 42 L 70 24 L 70 21 L 65 21 L 68 15 Q 69 12 67 13 Z M 102 19 L 102 22 L 91 25 Q 85 28 84 36 L 84 40 L 87 47 Q 91 52 101 52 L 102 56 L 109 56 L 109 53 L 116 52 L 122 49 L 127 42 L 126 31 Q 122 24 113 22 L 109 22 L 109 19 L 102 19 Z M 227 19 L 218 22 Q 211 26 209 36 Q 209 43 212 48 Q 216 53 223 55 Q 236 57 241 51 Q 242 46 239 45 L 233 48 Q 224 50 221 46 L 217 41 Q 216 34 219 31 L 227 26 Q 234 26 238 30 Q 241 30 241 25 Q 237 19 227 19 Z M 134 20 L 134 40 L 132 47 Q 131 49 127 48 L 126 55 L 136 54 L 140 47 L 141 27 L 153 27 L 153 55 L 154 55 L 161 55 L 161 20 L 134 20 Z M 166 20 L 166 55 L 167 55 L 174 55 L 174 21 L 174 20 L 166 20 Z M 180 20 L 180 55 L 188 55 L 188 41 L 193 41 L 202 54 L 203 55 L 211 55 L 199 38 L 210 22 L 210 20 L 202 20 L 193 34 L 188 34 L 188 20 L 180 20 Z M 26 21 L 26 50 L 32 55 L 39 58 L 36 63 Q 35 66 38 65 L 44 49 L 42 50 L 36 49 L 32 44 L 32 22 L 32 21 L 26 21 Z M 70 27 L 66 38 L 67 39 L 77 39 L 73 30 Q 74 25 70 27 Z " /><path fill="rgb(0,0,0)" stroke="rgb(0,0,0)" stroke-width="1" opacity="0" d="M 101.5 28 L 102 46 Q 95.8 46.8 93 42.5 L 92 34.5 L 95.5 30 L 101.5 28 Z " /><path fill="rgb(0,0,0)" stroke="rgb(0,0,0)" stroke-width="1" opacity="0" d="M 109 28 L 118 31 L 120 38.5 L 115.5 45 L 109 46 L 109 28 Z " /><path fill="rgb(246,151,44)" stroke="rgb(246,151,44)" stroke-width="1" opacity="0.7490196078431373" d="M 58 13 Q 61 11.8 60 15.5 L 48.5 40 Q 46.3 40.8 47 38.5 L 48 37.5 L 48 21 Q 54.1 22.8 56 19.5 L 58 13 Z " /><path fill="rgb(246,151,44)" stroke="rgb(246,151,44)" stroke-width="1" opacity="0.7490196078431373" d="M 26 21 L 31.5 21 L 32 21.5 L 32 43.5 L 35.5 49 L 41.5 50 L 44 49 L 38 65 Q 35 66.3 36 62.5 L 39 57.5 L 31.5 55 L 26 49.5 L 26 21 Z " /><path fill="rgb(246,151,44)" stroke="rgb(246,151,44)" stroke-width="1" opacity="0.7490196078431373" d="M 70 27 Q 74.1 25.3 73 29.5 L 77 39 L 66.5 39 L 66 37.5 L 70 27 Z " /><path fill="rgb(236,238,237)" stroke="rgb(236,238,237)" stroke-width="1" opacity="0.3607843137254902" d="M 66.5 13 Q 68.8 12.3 68 14.5 L 65 21 L 70 21 L 70 23.5 L 65.5 33 L 65 31.5 L 69 22 L 62.5 23 L 62 21.5 L 66.5 13 Z " /><path fill="rgb(236,238,237)" stroke="rgb(236,238,237)" stroke-width="1" opacity="0.3607843137254902" d="M 102.5 19 L 103 23 L 98 22.5 L 102 22 L 102.5 19 Z " /><path fill="rgb(236,238,237)" stroke="rgb(236,238,237)" stroke-width="1" opacity="0.3607843137254902" d="M 108.5 19 L 109 22 L 113 22.5 L 109.5 23 Q 107 22 108.5 19 Z " /><path fill="rgb(236,238,237)" stroke="rgb(236,238,237)" stroke-width="1" opacity="0.3607843137254902" d="M 226.5 19 L 231 19.5 L 226.5 20 L 226.5 19 Z " /><path fill="rgb(236,238,237)" stroke="rgb(236,238,237)" stroke-width="1" opacity="0.3607843137254902" d="M 134 20 L 161 20 L 161 34.5 L 160 34.5 L 160 21 L 135 21 L 134.5 35 L 134 20 Z " /><path fill="rgb(236,238,237)" stroke="rgb(236,238,237)" stroke-width="1" opacity="0.3607843137254902" d="M 166 20 L 174 20 L 174 33.5 L 173 33.5 L 173 21 L 167 21 L 166.5 55 L 166 20 Z " /><path fill="rgb(236,238,237)" stroke="rgb(236,238,237)" stroke-width="1" opacity="0.3607843137254902" d="M 180 20 L 188 20 L 188 34 L 192.5 34 L 192.5 35 Q 188 36 187 33.5 L 187 21 L 181 21 L 180.5 41 L 180 20 Z " /><path fill="rgb(236,238,237)" stroke="rgb(236,238,237)" stroke-width="1" opacity="0.3607843137254902" d="M 202 20 L 209.5 20 L 210 21.5 L 205.5 27 L 207 24.5 L 209 21.5 L 203.5 21 L 198.5 27 L 199 25.5 L 202 20 Z " /><path fill="rgb(236,238,237)" stroke="rgb(236,238,237)" stroke-width="1" opacity="0.3607843137254902" d="M 221.5 20 L 225 20.5 Q 216.6 21.6 213 27.5 L 210.5 34 L 210 31.5 L 217.5 22 L 221.5 20 Z " /><path fill="rgb(236,238,237)" stroke="rgb(236,238,237)" stroke-width="1" opacity="0.3607843137254902" d="M 232.5 20 Q 238.4 20.6 241 24.5 L 238.5 23 L 232.5 21 L 232.5 20 Z " /><path fill="rgb(236,238,237)" stroke="rgb(236,238,237)" stroke-width="1" opacity="0.3607843137254902" d="M 94.5 23 L 97 23.5 Q 90.6 24.6 87.5 29 L 90.5 25 L 94.5 23 Z " /><path fill="rgb(236,238,237)" stroke="rgb(236,238,237)" stroke-width="1" opacity="0.3607843137254902" d="M 114.5 23 L 119 24.5 L 117.5 25 L 114.5 24 L 114.5 23 Z " /><path fill="rgb(236,238,237)" stroke="rgb(236,238,237)" stroke-width="1" opacity="0.3607843137254902" d="M 61.5 24 L 61 25.5 L 60.5 27 L 60 25.5 L 61.5 24 Z " /><path fill="rgb(236,238,237)" stroke="rgb(236,238,237)" stroke-width="1" opacity="0.3607843137254902" d="M 120.5 25 L 126 30.5 L 126 32.5 L 125 32.5 L 125 30.5 L 120.5 25 Z " /><path fill="rgb(236,238,237)" stroke="rgb(236,238,237)" stroke-width="1" opacity="0.3607843137254902" d="M 227.5 25 L 230 25.5 L 227.5 26 L 227.5 25 Z " /><path fill="rgb(236,238,237)" stroke="rgb(236,238,237)" stroke-width="1" opacity="0.3607843137254902" d="M 140 26 L 154 26 L 154 40.5 L 153 40.5 L 153 27 L 141 27 L 140.5 39 L 140 26 Z " /><path fill="rgb(236,238,237)" stroke="rgb(236,238,237)" stroke-width="1" opacity="0.3607843137254902" d="M 223.5 26 L 225 26.5 L 218.5 31 L 221.5 27 L 223.5 26 Z " /><path fill="rgb(236,238,237)" stroke="rgb(236,238,237)" stroke-width="1" opacity="0.3607843137254902" d="M 231.5 26 L 237.5 29 L 241 26.5 L 236.5 30 Q 236 26.5 231.5 27 L 231.5 26 Z " /><path fill="rgb(236,238,237)" stroke="rgb(236,238,237)" stroke-width="1" opacity="0.3607843137254902" d="M 109.5 27 L 108.5 29 L 109.5 27 Z " /><path fill="rgb(236,238,237)" stroke="rgb(236,238,237)" stroke-width="1" opacity="0.3607843137254902" d="M 59.5 28 L 60 29.5 L 57.5 33 L 58 31.5 L 59.5 28 Z " /><path fill="rgb(236,238,237)" stroke="rgb(236,238,237)" stroke-width="1" opacity="0.3607843137254902" d="M 97.5 28 L 101 28.5 Q 94.9 28.9 92.5 33 L 95.5 29 L 97.5 28 Z " /><path fill="rgb(236,238,237)" stroke="rgb(236,238,237)" stroke-width="1" opacity="0.3607843137254902" d="M 102.5 28 L 103 41.5 L 102 41.5 L 102.5 28 Z " /><path fill="rgb(236,238,237)" stroke="rgb(236,238,237)" stroke-width="1" opacity="0.3607843137254902" d="M 111.5 28 L 119 31.5 L 120 34.5 L 119 34.5 L 118 31 L 111.5 29 L 111.5 28 Z " /><path fill="rgb(236,238,237)" stroke="rgb(236,238,237)" stroke-width="1" opacity="0.3607843137254902" d="M 197.5 28 L 196 30.5 L 194.5 33 L 195 31.5 L 197.5 28 Z " /><path fill="rgb(236,238,237)" stroke="rgb(236,238,237)" stroke-width="1" opacity="0.3607843137254902" d="M 204.5 28 L 203.5 30 L 204.5 28 Z " /><path fill="rgb(236,238,237)" stroke="rgb(236,238,237)" stroke-width="1" opacity="0.3607843137254902" d="M 86.5 30 L 86 31.5 L 85.5 34 L 85 31.5 L 86.5 30 Z " /><path fill="rgb(236,238,237)" stroke="rgb(236,238,237)" stroke-width="1" opacity="0.3607843137254902" d="M 202.5 31 L 201.5 33 L 202.5 31 Z " /><path fill="rgb(236,238,237)" stroke="rgb(236,238,237)" stroke-width="1" opacity="0.3607843137254902" d="M 126.5 34 L 127 41.5 L 126 41.5 L 126.5 34 Z " /><path fill="rgb(236,238,237)" stroke="rgb(236,238,237)" stroke-width="1" opacity="0.3607843137254902" d="M 200.5 34 L 199.5 36 L 200.5 34 Z " /><path fill="rgb(236,238,237)" stroke="rgb(236,238,237)" stroke-width="1" opacity="0.3607843137254902" d="M 84.5 35 L 85 39.5 L 84 39.5 L 84.5 35 Z " /><path fill="rgb(236,238,237)" stroke="rgb(236,238,237)" stroke-width="1" opacity="0.3607843137254902" d="M 91.5 35 L 92 38.5 L 91 38.5 L 91.5 35 Z " /><path fill="rgb(236,238,237)" stroke="rgb(236,238,237)" stroke-width="1" opacity="0.3607843137254902" d="M 209.5 36 L 210 39.5 L 209 39.5 L 209.5 36 Z " /><path fill="rgb(236,238,237)" stroke="rgb(236,238,237)" stroke-width="1" opacity="0.3607843137254902" d="M 200.5 39 L 201.5 41 L 200.5 39 Z " /><path fill="rgb(236,238,237)" stroke="rgb(236,238,237)" stroke-width="1" opacity="0.3607843137254902" d="M 187 40 L 193 40.5 L 188 41 L 187.5 49 L 187 40 Z " /><path fill="rgb(233,234,234)" stroke="rgb(233,234,234)" stroke-width="1" opacity="0.9921568627450981" d="M 103 19 L 108 19 L 108 21.5 L 109.5 23 L 119.5 25 L 125 30.5 L 126 38 L 120 38 L 120 33.5 L 117.5 30 L 109.5 27 Q 106.8 28.3 109 29.5 L 108 38 L 103 38 L 103 28 L 97.5 28 L 92 32.5 L 91 38 L 85 38 L 85 34.5 Q 86.3 28.8 90.5 26 Q 95 22.1 103 23 L 103 19 Z " /><path fill="rgb(233,234,234)" stroke="rgb(233,234,234)" stroke-width="1" opacity="0.9921568627450981" d="M 225.5 20 Q 236.5 19.5 241 25.5 L 236.5 29 L 233.5 26 L 227.5 25 Q 220.9 25.9 218 30.5 L 216 38 L 210 38 L 210 34.5 Q 211.8 26.9 217.5 23 L 225.5 20 Z " /><path fill="rgb(233,234,234)" stroke="rgb(233,234,234)" stroke-width="1" opacity="0.9921568627450981" d="M 135 21 L 160 21 L 160 38 L 154 38 L 154 26 L 140 26 L 140 38 L 135 38 L 135 21 Z " /><path fill="rgb(233,234,234)" stroke="rgb(233,234,234)" stroke-width="1" opacity="0.9921568627450981" d="M 167 21 L 173 21 L 173 38 L 167 38 L 167 21 Z " /><path fill="rgb(233,234,234)" stroke="rgb(233,234,234)" stroke-width="1" opacity="0.9921568627450981" d="M 181 21 L 187 21 L 187 35 L 192.5 35 L 203.5 21 L 209 21.5 L 198 38 L 181 38 L 181 21 Z " /><path fill="rgb(233,234,234)" stroke="rgb(233,234,234)" stroke-width="1" opacity="0.9921568627450981" d="M 63.5 22 Q 69.6 20.8 69 23.5 L 63 38 L 56.5 38 L 56 36.5 L 63.5 22 Z " /><path fill="rgb(217,219,218)" stroke="rgb(217,219,218)" stroke-width="1" opacity="0.43137254901960786" d="M 92.5 33 L 91.5 35 L 92.5 33 Z " /><path fill="rgb(217,219,218)" stroke="rgb(217,219,218)" stroke-width="1" opacity="0.43137254901960786" d="M 108.5 33 L 109 46 L 114.5 45 L 114.5 46 L 108 47 L 108.5 33 Z " /><path fill="rgb(217,219,218)" stroke="rgb(217,219,218)" stroke-width="1" opacity="0.43137254901960786" d="M 173.5 34 L 174 55 L 167 54.5 L 173 54 L 173.5 34 Z " /><path fill="rgb(217,219,218)" stroke="rgb(217,219,218)" stroke-width="1" opacity="0.43137254901960786" d="M 134.5 35 L 135 38.5 L 134 38.5 L 134.5 35 Z " /><path fill="rgb(217,219,218)" stroke="rgb(217,219,218)" stroke-width="1" opacity="0.43137254901960786" d="M 160.5 35 L 161 53.5 L 159.5 55 L 153 55 L 153.5 41 L 154 54 L 159.5 54 L 160 53.5 L 160.5 35 Z " /><path fill="rgb(217,219,218)" stroke="rgb(217,219,218)" stroke-width="1" opacity="0.43137254901960786" d="M 216.5 35 L 217 39.5 L 216 39.5 L 216.5 35 Z " /><path fill="rgb(217,219,218)" stroke="rgb(217,219,218)" stroke-width="1" opacity="0.43137254901960786" d="M 198.5 36 L 200 38.5 L 198 37.5 L 198.5 36 Z " /><path fill="rgb(217,219,218)" stroke="rgb(217,219,218)" stroke-width="1" opacity="0.43137254901960786" d="M 61.5 40 L 62 42 L 78.5 42 L 80 43.5 L 79.5 45 L 79 43 L 61.5 43 L 61.5 40 Z " /><path fill="rgb(217,219,218)" stroke="rgb(217,219,218)" stroke-width="1" opacity="0.43137254901960786" d="M 85.5 40 Q 86.6 46.4 91.5 49 L 95 50.5 L 93.5 51 L 88 48 L 85 42.5 L 85.5 40 Z " /><path fill="rgb(217,219,218)" stroke="rgb(217,219,218)" stroke-width="1" opacity="0.43137254901960786" d="M 119.5 40 L 120 41.5 L 116 44.5 L 119.5 40 Z " /><path fill="rgb(217,219,218)" stroke="rgb(217,219,218)" stroke-width="1" opacity="0.43137254901960786" d="M 133.5 40 L 134 44.5 L 130.5 49 Q 126.8 47.8 128 51.5 L 127 51.5 Q 125.3 46.3 130.5 48 Q 133.7 45.7 133.5 40 Z " /><path fill="rgb(217,219,218)" stroke="rgb(217,219,218)" stroke-width="1" opacity="0.43137254901960786" d="M 193.5 40 L 196 43.5 L 193 41.5 L 193.5 40 Z " /><path fill="rgb(217,219,218)" stroke="rgb(217,219,218)" stroke-width="1" opacity="0.43137254901960786" d="M 139.5 41 L 140 46.5 L 135.5 54 L 127.5 55 L 126.5 53 Q 128 55.5 133.5 54 L 137 51.5 L 139.5 41 Z " /><path fill="rgb(217,219,218)" stroke="rgb(217,219,218)" stroke-width="1" opacity="0.43137254901960786" d="M 180.5 41 L 181 54 L 187 54 L 187 49.5 L 188 49.5 L 188 55 L 180 55 L 180.5 41 Z " /><path fill="rgb(217,219,218)" stroke="rgb(217,219,218)" stroke-width="1" opacity="0.43137254901960786" d="M 201.5 41 L 202.5 43 L 201.5 41 Z " /><path fill="rgb(217,219,218)" stroke="rgb(217,219,218)" stroke-width="1" opacity="0.43137254901960786" d="M 210.5 41 Q 211.7 47.8 216.5 51 L 219 52.5 L 217.5 52 L 212 47.5 Q 209 45 210.5 41 Z " /><path fill="rgb(217,219,218)" stroke="rgb(217,219,218)" stroke-width="1" opacity="0.43137254901960786" d="M 53.5 42 L 53 43.5 L 51.5 47 L 51 45.5 L 53.5 42 Z " /><path fill="rgb(217,219,218)" stroke="rgb(217,219,218)" stroke-width="1" opacity="0.43137254901960786" d="M 102.5 42 L 103 47 L 99 46.5 L 102 46 L 102.5 42 Z " /><path fill="rgb(217,219,218)" stroke="rgb(217,219,218)" stroke-width="1" opacity="0.43137254901960786" d="M 125.5 42 L 126 43.5 L 121.5 49 Q 118.7 52.7 111.5 52 L 111.5 51 Q 120.7 51.2 124 45.5 L 125.5 42 Z " /><path fill="rgb(217,219,218)" stroke="rgb(217,219,218)" stroke-width="1" opacity="0.43137254901960786" d="M 217.5 42 L 221 46.5 L 218 44.5 L 217.5 42 Z " /><path fill="rgb(217,219,218)" stroke="rgb(217,219,218)" stroke-width="1" opacity="0.43137254901960786" d="M 93.5 43 L 98 45.5 L 96.5 46 L 93.5 43 Z " /><path fill="rgb(217,219,218)" stroke="rgb(217,219,218)" stroke-width="1" opacity="0.43137254901960786" d="M 203.5 44 L 211 55 L 202.5 55 L 202 53.5 L 196 45.5 L 199 47.5 L 203.5 54 Q 209.6 55.3 209 52.5 L 203.5 44 Z " /><path fill="rgb(217,219,218)" stroke="rgb(217,219,218)" stroke-width="1" opacity="0.43137254901960786" d="M 236.5 45 Q 240.5 44.5 241 47.5 L 238.5 46 L 230.5 49 L 230.5 48 L 236.5 45 Z " /><path fill="rgb(217,219,218)" stroke="rgb(217,219,218)" stroke-width="1" opacity="0.43137254901960786" d="M 80.5 46 L 85 56 L 77.5 56 L 76 54.5 L 75 51.5 L 76 51.5 L 77 55 L 84 54.5 L 80 47.5 L 80.5 46 Z " /><path fill="rgb(217,219,218)" stroke="rgb(217,219,218)" stroke-width="1" opacity="0.43137254901960786" d="M 59.5 47 L 73 47.5 L 59.5 48 L 58 49.5 L 54.5 56 Q 49.3 54.8 48 57.5 L 45 65 Q 42.3 66.1 43 63.5 L 47 55 L 54.5 55 L 55 53.5 L 59.5 47 Z " /><path fill="rgb(217,219,218)" stroke="rgb(217,219,218)" stroke-width="1" opacity="0.43137254901960786" d="M 50.5 48 L 51 49.5 L 48.5 54 L 48 52.5 L 50.5 48 Z " /><path fill="rgb(217,219,218)" stroke="rgb(217,219,218)" stroke-width="1" opacity="0.43137254901960786" d="M 224.5 48 L 229 48.5 L 224.5 49 L 224.5 48 Z " /><path fill="rgb(217,219,218)" stroke="rgb(217,219,218)" stroke-width="1" opacity="0.43137254901960786" d="M 240.5 50 L 239.5 52 L 237.5 53 L 238.5 51 L 240.5 50 Z " /><path fill="rgb(217,219,218)" stroke="rgb(217,219,218)" stroke-width="1" opacity="0.43137254901960786" d="M 96.5 51 L 100 51.5 L 96.5 52 L 96.5 51 Z " /><path fill="rgb(217,219,218)" stroke="rgb(217,219,218)" stroke-width="1" opacity="0.43137254901960786" d="M 101.5 52 Q 104.5 51.2 103 55 L 108 55 L 108.5 52 L 109 56 L 102 56 L 102 53.5 L 101.5 52 Z " /><path fill="rgb(217,219,218)" stroke="rgb(217,219,218)" stroke-width="1" opacity="0.43137254901960786" d="M 220.5 53 L 222.5 54 L 233.5 54 L 235.5 53 L 235.5 54 L 233.5 55 L 222.5 55 L 220.5 53 Z " /><path fill="rgb(220,221,221)" stroke="rgb(220,221,221)" stroke-width="1" opacity="0.996078431372549" d="M 55 38 L 61.5 38 L 62 39.5 L 61 43 L 78.5 43 L 79 44.5 L 84 54.5 L 77 55 L 72.5 47 L 59.5 47 L 57 49.5 L 55 55 L 48 54.5 L 55 38 Z " /><path fill="rgb(220,221,221)" stroke="rgb(220,221,221)" stroke-width="1" opacity="0.996078431372549" d="M 85 38 L 91 38 L 91 40.5 L 94.5 45 L 103 47 L 103 38 L 108 38 L 108 47 L 112.5 47 L 120 41.5 L 120 38 L 126 38 Q 126.8 45.1 121.5 48 L 115.5 51 L 108 52 L 108 55 L 103 55 Q 104.7 50.9 100.5 52 L 91.5 49 L 87 44.5 L 85 38 Z " /><path fill="rgb(220,221,221)" stroke="rgb(220,221,221)" stroke-width="1" opacity="0.996078431372549" d="M 135.5 38 Q 141.3 35.9 140 40.5 L 138 49.5 L 135.5 53 L 127 54 L 128 49 Q 131.8 49.8 133 46.5 L 134 39.5 L 135.5 38 Z " /><path fill="rgb(220,221,221)" stroke="rgb(220,221,221)" stroke-width="1" opacity="0.996078431372549" d="M 154 38 L 160 38 L 160 54 L 154 54 L 154 38 Z " /><path fill="rgb(220,221,221)" stroke="rgb(220,221,221)" stroke-width="1" opacity="0.996078431372549" d="M 167 38 L 173 38 L 173 54 L 167 54 L 167 38 Z " /><path fill="rgb(220,221,221)" stroke="rgb(220,221,221)" stroke-width="1" opacity="0.996078431372549" d="M 181 38 L 198.5 38 L 201 40.5 L 209 54 Q 202.7 55.5 201 51.5 L 194 40 L 187 40 L 187 54 L 181 54 L 181 38 Z " /><path fill="rgb(220,221,221)" stroke="rgb(220,221,221)" stroke-width="1" opacity="0.996078431372549" d="M 210 38 L 215.5 38 L 216 39.5 L 220.5 47 Q 224.2 50.3 232.5 49 L 238.5 46 L 241 49.5 Q 236.1 56.1 222.5 54 L 213 47.5 L 210 38 Z " /></svg>